<mxfile host="app.diagrams.net" modified="2023-05-05T02:43:31.743Z" agent="Mozilla/5.0 (Macintosh; Intel Mac OS X 10_15_7) AppleWebKit/537.36 (KHTML, like Gecko) Chrome/112.0.0.0 Safari/537.36" etag="p1j6Rsa5sIYF2XoVZNUW" version="21.2.3" type="github">
  <diagram name="Page-1" id="c37626ed-c26b-45fb-9056-f9ebc6bb27b6">
    <mxGraphModel dx="1324" dy="1163" grid="1" gridSize="10" guides="1" tooltips="1" connect="1" arrows="1" fold="1" page="1" pageScale="1" pageWidth="1100" pageHeight="850" background="none" math="0" shadow="0">
      <root>
        <mxCell id="0" />
        <mxCell id="1" parent="0" />
        <mxCell id="lvLueSte9KzbTm47bmVn-60" style="edgeStyle=orthogonalEdgeStyle;rounded=0;orthogonalLoop=1;jettySize=auto;html=1;entryX=0;entryY=0.415;entryDx=0;entryDy=0;entryPerimeter=0;" parent="1" source="lvLueSte9KzbTm47bmVn-59" target="lvLueSte9KzbTm47bmVn-4" edge="1">
          <mxGeometry relative="1" as="geometry" />
        </mxCell>
        <mxCell id="lvLueSte9KzbTm47bmVn-35" value="" style="rounded=0;whiteSpace=wrap;html=1;dashed=1;" parent="1" vertex="1">
          <mxGeometry x="300" y="415" width="640" height="375" as="geometry" />
        </mxCell>
        <mxCell id="lvLueSte9KzbTm47bmVn-14" value="" style="rounded=0;whiteSpace=wrap;html=1;dashed=1;" parent="1" vertex="1">
          <mxGeometry x="320" y="440" width="220" height="90" as="geometry" />
        </mxCell>
        <mxCell id="lvLueSte9KzbTm47bmVn-3" value="" style="shape=mxgraph.cisco.security.firewall;sketch=0;html=1;pointerEvents=1;dashed=0;fillColor=#036897;strokeColor=#ffffff;strokeWidth=2;verticalLabelPosition=bottom;verticalAlign=top;align=center;outlineConnect=0;" parent="1" vertex="1">
          <mxGeometry x="470" y="63.5" width="29" height="67" as="geometry" />
        </mxCell>
        <mxCell id="lvLueSte9KzbTm47bmVn-6" style="edgeStyle=orthogonalEdgeStyle;rounded=0;orthogonalLoop=1;jettySize=auto;html=1;exitX=0.5;exitY=1;exitDx=0;exitDy=0;exitPerimeter=0;" parent="1" source="lvLueSte9KzbTm47bmVn-57" target="lvLueSte9KzbTm47bmVn-5" edge="1">
          <mxGeometry relative="1" as="geometry">
            <mxPoint x="779" y="141" as="sourcePoint" />
          </mxGeometry>
        </mxCell>
        <mxCell id="lvLueSte9KzbTm47bmVn-4" value="" style="shape=mxgraph.cisco.routers.atm_tag_switch_router;sketch=0;html=1;pointerEvents=1;dashed=0;fillColor=#036897;strokeColor=#ffffff;strokeWidth=2;verticalLabelPosition=bottom;verticalAlign=top;align=center;outlineConnect=0;" parent="1" vertex="1">
          <mxGeometry x="601" y="56" width="64" height="82" as="geometry" />
        </mxCell>
        <mxCell id="lvLueSte9KzbTm47bmVn-13" style="edgeStyle=orthogonalEdgeStyle;rounded=0;orthogonalLoop=1;jettySize=auto;html=1;entryX=0.5;entryY=0;entryDx=0;entryDy=0;entryPerimeter=0;" parent="1" source="lvLueSte9KzbTm47bmVn-5" target="lvLueSte9KzbTm47bmVn-12" edge="1">
          <mxGeometry relative="1" as="geometry" />
        </mxCell>
        <mxCell id="lvLueSte9KzbTm47bmVn-24" style="edgeStyle=orthogonalEdgeStyle;rounded=0;orthogonalLoop=1;jettySize=auto;html=1;exitX=1;exitY=0.5;exitDx=0;exitDy=0;exitPerimeter=0;" parent="1" source="lvLueSte9KzbTm47bmVn-5" target="lvLueSte9KzbTm47bmVn-23" edge="1">
          <mxGeometry relative="1" as="geometry" />
        </mxCell>
        <mxCell id="lvLueSte9KzbTm47bmVn-5" value="" style="shape=mxgraph.cisco.hubs_and_gateways.generic_gateway;sketch=0;html=1;pointerEvents=1;dashed=0;fillColor=#036897;strokeColor=#ffffff;strokeWidth=2;verticalLabelPosition=bottom;verticalAlign=top;align=center;outlineConnect=0;" parent="1" vertex="1">
          <mxGeometry x="600" y="240" width="66" height="74" as="geometry" />
        </mxCell>
        <mxCell id="lvLueSte9KzbTm47bmVn-7" value="" style="shape=mxgraph.cisco.servers.fileserver;sketch=0;html=1;pointerEvents=1;dashed=0;fillColor=#036897;strokeColor=#ffffff;strokeWidth=2;verticalLabelPosition=bottom;verticalAlign=top;align=center;outlineConnect=0;" parent="1" vertex="1">
          <mxGeometry x="410" y="450" width="43" height="62" as="geometry" />
        </mxCell>
        <mxCell id="lvLueSte9KzbTm47bmVn-8" value="" style="shape=mxgraph.cisco.servers.fileserver;sketch=0;html=1;pointerEvents=1;dashed=0;fillColor=#036897;strokeColor=#ffffff;strokeWidth=2;verticalLabelPosition=bottom;verticalAlign=top;align=center;outlineConnect=0;" parent="1" vertex="1">
          <mxGeometry x="490" y="450" width="43" height="62" as="geometry" />
        </mxCell>
        <mxCell id="lvLueSte9KzbTm47bmVn-26" style="edgeStyle=orthogonalEdgeStyle;rounded=0;orthogonalLoop=1;jettySize=auto;html=1;" parent="1" source="lvLueSte9KzbTm47bmVn-12" edge="1">
          <mxGeometry relative="1" as="geometry">
            <mxPoint x="424" y="430" as="targetPoint" />
          </mxGeometry>
        </mxCell>
        <mxCell id="lvLueSte9KzbTm47bmVn-12" value="" style="shape=mxgraph.cisco.hubs_and_gateways.mas_gateway;sketch=0;html=1;pointerEvents=1;dashed=0;fillColor=#036897;strokeColor=#ffffff;strokeWidth=2;verticalLabelPosition=bottom;verticalAlign=top;align=center;outlineConnect=0;" parent="1" vertex="1">
          <mxGeometry x="395" y="326" width="58" height="59" as="geometry" />
        </mxCell>
        <mxCell id="lvLueSte9KzbTm47bmVn-17" value="" style="shape=mxgraph.cisco.servers.fileserver;sketch=0;html=1;pointerEvents=1;dashed=0;fillColor=#036897;strokeColor=#ffffff;strokeWidth=2;verticalLabelPosition=bottom;verticalAlign=top;align=center;outlineConnect=0;" parent="1" vertex="1">
          <mxGeometry x="330" y="450" width="43" height="62" as="geometry" />
        </mxCell>
        <mxCell id="lvLueSte9KzbTm47bmVn-18" value="" style="rounded=0;whiteSpace=wrap;html=1;" parent="1" vertex="1">
          <mxGeometry x="700" y="440" width="220" height="90" as="geometry" />
        </mxCell>
        <mxCell id="lvLueSte9KzbTm47bmVn-19" value="" style="shape=mxgraph.cisco.servers.fileserver;sketch=0;html=1;pointerEvents=1;dashed=0;fillColor=#036897;strokeColor=#ffffff;strokeWidth=2;verticalLabelPosition=bottom;verticalAlign=top;align=center;outlineConnect=0;" parent="1" vertex="1">
          <mxGeometry x="788.5" y="450" width="43" height="62" as="geometry" />
        </mxCell>
        <mxCell id="lvLueSte9KzbTm47bmVn-20" value="" style="shape=mxgraph.cisco.servers.fileserver;sketch=0;html=1;pointerEvents=1;dashed=0;fillColor=#036897;strokeColor=#ffffff;strokeWidth=2;verticalLabelPosition=bottom;verticalAlign=top;align=center;outlineConnect=0;" parent="1" vertex="1">
          <mxGeometry x="868.5" y="450" width="43" height="62" as="geometry" />
        </mxCell>
        <mxCell id="lvLueSte9KzbTm47bmVn-21" value="" style="shape=mxgraph.cisco.servers.fileserver;sketch=0;html=1;pointerEvents=1;dashed=0;fillColor=#036897;strokeColor=#ffffff;strokeWidth=2;verticalLabelPosition=bottom;verticalAlign=top;align=center;outlineConnect=0;" parent="1" vertex="1">
          <mxGeometry x="708.5" y="450" width="43" height="62" as="geometry" />
        </mxCell>
        <mxCell id="lvLueSte9KzbTm47bmVn-27" style="edgeStyle=orthogonalEdgeStyle;rounded=0;orthogonalLoop=1;jettySize=auto;html=1;exitX=0.5;exitY=1;exitDx=0;exitDy=0;exitPerimeter=0;" parent="1" source="lvLueSte9KzbTm47bmVn-23" edge="1">
          <mxGeometry relative="1" as="geometry">
            <mxPoint x="810" y="430" as="targetPoint" />
          </mxGeometry>
        </mxCell>
        <mxCell id="lvLueSte9KzbTm47bmVn-23" value="" style="shape=mxgraph.cisco.hubs_and_gateways.mas_gateway;sketch=0;html=1;pointerEvents=1;dashed=0;fillColor=#036897;strokeColor=#ffffff;strokeWidth=2;verticalLabelPosition=bottom;verticalAlign=top;align=center;outlineConnect=0;" parent="1" vertex="1">
          <mxGeometry x="781" y="326" width="58" height="59" as="geometry" />
        </mxCell>
        <mxCell id="lvLueSte9KzbTm47bmVn-30" value="color网关" style="text;html=1;strokeColor=none;fillColor=none;align=center;verticalAlign=middle;whiteSpace=wrap;rounded=0;" parent="1" vertex="1">
          <mxGeometry x="580" y="320" width="60" height="30" as="geometry" />
        </mxCell>
        <mxCell id="lvLueSte9KzbTm47bmVn-31" value="汇天 VIP" style="text;html=1;strokeColor=none;fillColor=none;align=center;verticalAlign=middle;whiteSpace=wrap;rounded=0;" parent="1" vertex="1">
          <mxGeometry x="395" y="385" width="60" height="30" as="geometry" />
        </mxCell>
        <mxCell id="lvLueSte9KzbTm47bmVn-32" value="廊坊 VIP" style="text;html=1;strokeColor=none;fillColor=none;align=center;verticalAlign=middle;whiteSpace=wrap;rounded=0;" parent="1" vertex="1">
          <mxGeometry x="779" y="385" width="60" height="30" as="geometry" />
        </mxCell>
        <mxCell id="lvLueSte9KzbTm47bmVn-33" value="汇天机房" style="text;html=1;strokeColor=none;fillColor=none;align=center;verticalAlign=middle;whiteSpace=wrap;rounded=0;" parent="1" vertex="1">
          <mxGeometry x="390" y="540" width="60" height="30" as="geometry" />
        </mxCell>
        <mxCell id="lvLueSte9KzbTm47bmVn-34" value="廊坊机房" style="text;html=1;strokeColor=none;fillColor=none;align=center;verticalAlign=middle;whiteSpace=wrap;rounded=0;" parent="1" vertex="1">
          <mxGeometry x="779" y="540" width="60" height="30" as="geometry" />
        </mxCell>
        <mxCell id="lvLueSte9KzbTm47bmVn-36" value="jimdb分布式存储" style="shape=mxgraph.cisco.storage.cloud;sketch=0;html=1;pointerEvents=1;dashed=0;fillColor=#036897;strokeColor=#ffffff;strokeWidth=2;verticalLabelPosition=bottom;verticalAlign=top;align=center;outlineConnect=0;" parent="1" vertex="1">
          <mxGeometry x="620" y="650" width="143" height="80" as="geometry" />
        </mxCell>
        <mxCell id="lvLueSte9KzbTm47bmVn-37" value="JED 主" style="shape=mxgraph.cisco.storage.relational_database;sketch=0;html=1;pointerEvents=1;dashed=0;fillColor=#036897;strokeColor=#ffffff;strokeWidth=2;verticalLabelPosition=bottom;verticalAlign=top;align=center;outlineConnect=0;" parent="1" vertex="1">
          <mxGeometry x="373" y="700" width="71" height="30" as="geometry" />
        </mxCell>
        <mxCell id="lvLueSte9KzbTm47bmVn-38" value="JED从" style="shape=mxgraph.cisco.storage.relational_database;sketch=0;html=1;pointerEvents=1;dashed=0;fillColor=#036897;strokeColor=#ffffff;strokeWidth=2;verticalLabelPosition=bottom;verticalAlign=top;align=center;outlineConnect=0;" parent="1" vertex="1">
          <mxGeometry x="462" y="660" width="71" height="30" as="geometry" />
        </mxCell>
        <mxCell id="lvLueSte9KzbTm47bmVn-39" value="JED从" style="shape=mxgraph.cisco.storage.relational_database;sketch=0;html=1;pointerEvents=1;dashed=0;fillColor=#036897;strokeColor=#ffffff;strokeWidth=2;verticalLabelPosition=bottom;verticalAlign=top;align=center;outlineConnect=0;" parent="1" vertex="1">
          <mxGeometry x="462" y="730" width="71" height="30" as="geometry" />
        </mxCell>
        <mxCell id="lvLueSte9KzbTm47bmVn-42" value="" style="endArrow=classic;html=1;rounded=0;" parent="1" edge="1">
          <mxGeometry width="50" height="50" relative="1" as="geometry">
            <mxPoint x="432" y="700" as="sourcePoint" />
            <mxPoint x="462" y="680" as="targetPoint" />
          </mxGeometry>
        </mxCell>
        <mxCell id="lvLueSte9KzbTm47bmVn-43" value="" style="endArrow=classic;html=1;rounded=0;entryX=0;entryY=0.5;entryDx=0;entryDy=0;entryPerimeter=0;exitX=0.88;exitY=0.92;exitDx=0;exitDy=0;exitPerimeter=0;" parent="1" source="lvLueSte9KzbTm47bmVn-37" target="lvLueSte9KzbTm47bmVn-39" edge="1">
          <mxGeometry width="50" height="50" relative="1" as="geometry">
            <mxPoint x="442" y="710" as="sourcePoint" />
            <mxPoint x="472" y="690" as="targetPoint" />
          </mxGeometry>
        </mxCell>
        <mxCell id="lvLueSte9KzbTm47bmVn-46" value="" style="endArrow=none;html=1;rounded=0;" parent="1" edge="1">
          <mxGeometry width="50" height="50" relative="1" as="geometry">
            <mxPoint x="430" y="610" as="sourcePoint" />
            <mxPoint x="810" y="610" as="targetPoint" />
          </mxGeometry>
        </mxCell>
        <mxCell id="lvLueSte9KzbTm47bmVn-47" value="" style="endArrow=none;html=1;rounded=0;" parent="1" edge="1">
          <mxGeometry width="50" height="50" relative="1" as="geometry">
            <mxPoint x="430" y="610" as="sourcePoint" />
            <mxPoint x="429.5" y="570" as="targetPoint" />
          </mxGeometry>
        </mxCell>
        <mxCell id="lvLueSte9KzbTm47bmVn-48" value="" style="endArrow=none;html=1;rounded=0;" parent="1" edge="1">
          <mxGeometry width="50" height="50" relative="1" as="geometry">
            <mxPoint x="810" y="610" as="sourcePoint" />
            <mxPoint x="809.5" y="570" as="targetPoint" />
          </mxGeometry>
        </mxCell>
        <mxCell id="lvLueSte9KzbTm47bmVn-49" value="" style="endArrow=classic;html=1;rounded=0;" parent="1" edge="1">
          <mxGeometry width="50" height="50" relative="1" as="geometry">
            <mxPoint x="497" y="610" as="sourcePoint" />
            <mxPoint x="497" y="650" as="targetPoint" />
          </mxGeometry>
        </mxCell>
        <mxCell id="lvLueSte9KzbTm47bmVn-51" value="" style="endArrow=classic;html=1;rounded=0;" parent="1" edge="1">
          <mxGeometry width="50" height="50" relative="1" as="geometry">
            <mxPoint x="691" y="610" as="sourcePoint" />
            <mxPoint x="691" y="650" as="targetPoint" />
          </mxGeometry>
        </mxCell>
        <mxCell id="lvLueSte9KzbTm47bmVn-52" value="" style="shape=mxgraph.cisco.storage.web_cluster;sketch=0;html=1;pointerEvents=1;dashed=0;fillColor=#036897;strokeColor=#ffffff;strokeWidth=2;verticalLabelPosition=bottom;verticalAlign=top;align=center;outlineConnect=0;" parent="1" vertex="1">
          <mxGeometry x="230" y="40" width="186" height="106" as="geometry" />
        </mxCell>
        <mxCell id="lvLueSte9KzbTm47bmVn-55" value="互联网" style="text;html=1;strokeColor=none;fillColor=none;align=center;verticalAlign=middle;whiteSpace=wrap;rounded=0;" parent="1" vertex="1">
          <mxGeometry x="300" y="156" width="60" height="30" as="geometry" />
        </mxCell>
        <mxCell id="lvLueSte9KzbTm47bmVn-56" value="防火墙" style="text;html=1;strokeColor=none;fillColor=none;align=center;verticalAlign=middle;whiteSpace=wrap;rounded=0;" parent="1" vertex="1">
          <mxGeometry x="450" y="156" width="60" height="30" as="geometry" />
        </mxCell>
        <mxCell id="lvLueSte9KzbTm47bmVn-58" value="" style="edgeStyle=orthogonalEdgeStyle;rounded=0;orthogonalLoop=1;jettySize=auto;html=1;exitX=0.5;exitY=1;exitDx=0;exitDy=0;exitPerimeter=0;" parent="1" source="lvLueSte9KzbTm47bmVn-4" target="lvLueSte9KzbTm47bmVn-57" edge="1">
          <mxGeometry relative="1" as="geometry">
            <mxPoint x="633" y="138" as="sourcePoint" />
            <mxPoint x="633" y="240" as="targetPoint" />
          </mxGeometry>
        </mxCell>
        <mxCell id="lvLueSte9KzbTm47bmVn-57" value="中心交换机" style="text;html=1;strokeColor=none;fillColor=none;align=center;verticalAlign=middle;whiteSpace=wrap;rounded=0;" parent="1" vertex="1">
          <mxGeometry x="574.5" y="154" width="117" height="34" as="geometry" />
        </mxCell>
        <mxCell id="lvLueSte9KzbTm47bmVn-59" value="" style="shape=mxgraph.cisco.people.androgenous_person;sketch=0;html=1;pointerEvents=1;dashed=0;fillColor=#036897;strokeColor=#ffffff;strokeWidth=2;verticalLabelPosition=bottom;verticalAlign=top;align=center;outlineConnect=0;" parent="1" vertex="1">
          <mxGeometry x="130" y="49" width="69" height="82" as="geometry" />
        </mxCell>
        <mxCell id="a0uFh7iPqrULMJtmAxZd-1" value="" style="rounded=0;whiteSpace=wrap;html=1;" vertex="1" parent="1">
          <mxGeometry x="150" y="980" width="210" height="120" as="geometry" />
        </mxCell>
        <mxCell id="a0uFh7iPqrULMJtmAxZd-2" value="" style="rounded=0;whiteSpace=wrap;html=1;" vertex="1" parent="1">
          <mxGeometry x="444" y="1010" width="210" height="90" as="geometry" />
        </mxCell>
        <mxCell id="a0uFh7iPqrULMJtmAxZd-3" value="" style="rounded=0;whiteSpace=wrap;html=1;" vertex="1" parent="1">
          <mxGeometry x="788.5" y="1010" width="210" height="90" as="geometry" />
        </mxCell>
        <mxCell id="a0uFh7iPqrULMJtmAxZd-4" value="商详分组" style="text;html=1;strokeColor=none;fillColor=none;align=center;verticalAlign=middle;whiteSpace=wrap;rounded=0;" vertex="1" parent="1">
          <mxGeometry x="220" y="1110" width="60" height="30" as="geometry" />
        </mxCell>
        <mxCell id="a0uFh7iPqrULMJtmAxZd-5" value="收银台分组" style="text;html=1;strokeColor=none;fillColor=none;align=center;verticalAlign=middle;whiteSpace=wrap;rounded=0;" vertex="1" parent="1">
          <mxGeometry x="530" y="1110" width="60" height="30" as="geometry" />
        </mxCell>
        <mxCell id="a0uFh7iPqrULMJtmAxZd-6" value="通用分组" style="text;html=1;strokeColor=none;fillColor=none;align=center;verticalAlign=middle;whiteSpace=wrap;rounded=0;" vertex="1" parent="1">
          <mxGeometry x="868.5" y="1110" width="60" height="30" as="geometry" />
        </mxCell>
        <mxCell id="a0uFh7iPqrULMJtmAxZd-7" value="" style="sketch=0;html=1;dashed=0;whitespace=wrap;fillColor=#2875E2;strokeColor=#ffffff;points=[[0.005,0.63,0],[0.1,0.2,0],[0.9,0.2,0],[0.5,0,0],[0.995,0.63,0],[0.72,0.99,0],[0.5,1,0],[0.28,0.99,0]];verticalLabelPosition=bottom;align=center;verticalAlign=top;shape=mxgraph.kubernetes.icon;prIcon=api" vertex="1" parent="1">
          <mxGeometry x="170" y="980" width="70" height="80" as="geometry" />
        </mxCell>
        <mxCell id="a0uFh7iPqrULMJtmAxZd-11" value="" style="sketch=0;html=1;dashed=0;whitespace=wrap;fillColor=#2875E2;strokeColor=#ffffff;points=[[0.005,0.63,0],[0.1,0.2,0],[0.9,0.2,0],[0.5,0,0],[0.995,0.63,0],[0.72,0.99,0],[0.5,1,0],[0.28,0.99,0]];verticalLabelPosition=bottom;align=center;verticalAlign=top;shape=mxgraph.kubernetes.icon;prIcon=api" vertex="1" parent="1">
          <mxGeometry x="270" y="980" width="70" height="80" as="geometry" />
        </mxCell>
      </root>
    </mxGraphModel>
  </diagram>
</mxfile>
